<?xml version="1.0" standalone="no"?>
<!DOCTYPE svg PUBLIC "-//W3C//DTD SVG 20010904//EN"
 "http://www.w3.org/TR/2001/REC-SVG-20010904/DTD/svg10.dtd">
<svg version="1.0" xmlns="http://www.w3.org/2000/svg"
 width="1280.000000pt" height="720.000000pt" viewBox="0 0 1280.000000 720.000000"
 preserveAspectRatio="xMidYMid meet">

<g transform="translate(0.000000,720.000000) scale(0.100000,-0.100000)"
fill="#000000" stroke="none">
<path d="M310 7019 c0 -167 -2 -184 -21 -216 -34 -55 -82 -73 -194 -73 -90 0
-95 -1 -95 -21 0 -20 4 -20 135 -17 129 3 136 4 160 29 38 37 44 81 45 292 0
160 -2 187 -15 187 -13 0 -15 -27 -15 -181z"/>
<path d="M1131 6566 c4 -632 4 -634 -17 -663 -12 -15 -36 -37 -55 -48 -33 -19
-50 -20 -546 -16 l-513 3 0 -86 0 -86 73 1 c39 0 111 4 159 7 53 4 89 3 91 -2
2 -6 14 10 28 34 13 24 39 55 58 67 33 23 38 23 325 23 l291 0 54 -33 c29 -17
65 -38 78 -45 18 -10 23 -20 19 -35 -4 -18 -1 -16 19 8 13 17 24 33 25 37 0 3
16 16 35 28 31 19 56 22 227 29 106 4 173 9 148 10 -25 1 -67 7 -95 12 -27 6
-100 14 -161 18 -132 8 -170 27 -205 98 l-22 46 6 614 c6 560 5 613 -9 613
-15 0 -16 -56 -13 -634z"/>
<path d="M11600 7108 c0 -75 -4 -99 -20 -125 -41 -68 -27 -66 -509 -75 -482
-9 -462 -9 -456 -18 10 -15 -23 -39 -65 -48 l-45 -10 58 -1 c74 -1 117 -20
153 -65 16 -20 32 -36 37 -36 4 0 37 27 72 60 36 33 77 65 91 70 15 6 289 10
708 10 l683 0 44 -23 c84 -44 80 9 77 -852 l-3 -760 -24 -39 c-13 -21 -38 -44
-55 -51 -21 -8 -124 -15 -313 -20 -271 -7 -284 -6 -325 13 -24 11 -56 20 -72
20 -20 0 -37 8 -49 23 -18 23 -19 37 -14 274 5 202 10 267 26 339 28 121 27
161 -4 191 -23 24 -31 25 -133 25 -85 0 -111 -3 -115 -14 -7 -17 -32 -22 -147
-33 -83 -7 -81 -8 82 -13 147 -5 171 -8 195 -26 51 -39 65 -68 74 -156 9 -99
12 -523 3 -566 -3 -17 -21 -47 -39 -66 l-33 -37 36 -15 c20 -8 46 -24 58 -35
20 -19 24 -19 55 -5 19 8 66 26 104 40 70 26 73 26 372 26 l301 0 22 35 c20
33 21 49 26 392 4 205 10 366 16 376 5 10 42 34 81 53 65 31 80 34 159 34 l88
0 0 365 0 365 -110 0 c-128 0 -174 16 -213 75 -12 19 -31 35 -42 37 -19 3 -20
9 -16 181 3 159 2 177 -13 177 -14 0 -16 -13 -16 -89 0 -130 -25 -187 -97
-217 -50 -21 -552 -20 -597 1 -57 27 -76 77 -76 199 0 64 -4 106 -10 106 -6 0
-10 -38 -10 -92z m974 -443 c-34 -15 -84 -69 -84 -90 0 -8 -4 -16 -9 -20 -6
-3 -6 7 -1 26 15 52 67 98 110 98 8 -1 1 -7 -16 -14z"/>
<path d="M5642 6260 l-22 -9 2 -428 3 -428 38 -9 c23 -6 51 -6 75 0 l37 9 5
199 5 198 39 34 c27 24 49 34 72 34 86 0 94 -22 94 -259 l0 -191 25 -16 c19
-13 38 -15 77 -11 28 4 56 11 60 15 5 5 8 110 6 233 -3 205 -5 228 -25 271
-14 31 -36 56 -64 75 -37 24 -52 28 -114 28 -63 0 -78 -4 -123 -32 l-52 -32 0
155 0 154 -26 10 c-31 12 -81 12 -112 0z"/>
<path d="M3540 6195 c-12 -15 0 -52 185 -597 67 -196 67 -197 102 -209 46 -15
159 -8 177 11 7 8 71 187 142 397 109 325 126 383 115 397 -17 20 -133 23
-149 4 -5 -7 -51 -146 -102 -308 -51 -162 -94 -299 -97 -304 -3 -4 -48 126
-100 290 -52 165 -102 307 -110 317 -21 22 -144 25 -163 2z"/>
<path d="M4443 5997 c-64 -25 -120 -73 -147 -128 -46 -95 -51 -249 -12 -343
22 -52 72 -102 128 -126 44 -20 70 -23 153 -23 167 1 242 45 218 127 -10 36
-12 36 -128 10 -101 -22 -146 -15 -192 31 -25 25 -33 42 -33 69 l0 36 174 0
c214 0 210 -2 204 109 -7 110 -48 179 -133 224 -49 25 -183 33 -232 14z m141
-117 c30 -11 53 -44 62 -88 l7 -32 -112 0 c-108 0 -111 1 -111 23 0 12 9 37
20 55 29 47 79 63 134 42z"/>
<path d="M5175 5992 c-22 -10 -55 -31 -72 -46 l-33 -28 0 29 c0 16 -5 34 -12
41 -13 13 -96 16 -116 4 -9 -7 -12 -74 -10 -303 l3 -294 38 -9 c23 -6 51 -6
75 0 l37 9 5 199 5 198 39 34 c27 24 49 34 72 34 86 0 94 -22 94 -259 l0 -191
25 -16 c19 -13 38 -15 77 -11 28 4 56 11 61 16 5 5 7 108 5 237 -3 215 -4 232
-26 271 -33 62 -90 96 -166 100 -44 3 -72 -2 -101 -15z"/>
<path d="M6401 5987 c-80 -27 -107 -58 -97 -112 4 -20 13 -38 21 -41 8 -3 43
6 79 20 81 33 166 36 195 7 22 -22 38 -88 25 -101 -5 -4 -50 -10 -100 -12
-165 -7 -247 -70 -247 -187 0 -103 57 -169 160 -185 55 -8 128 8 175 39 l37
24 3 -21 c4 -29 55 -45 101 -32 l32 10 3 219 c3 242 -2 276 -49 330 -58 66
-213 85 -338 42z m223 -359 c12 -46 6 -66 -29 -97 -67 -58 -155 -38 -155 35 0
49 20 65 100 77 63 10 78 7 84 -15z"/>
<path d="M1174 5565 c0 -55 1 -76 3 -47 2 29 2 74 0 100 -2 26 -3 2 -3 -53z"/>
<path d="M6951 5381 c-6 -11 -11 -29 -11 -40 0 -12 -7 -21 -15 -21 -8 0 -15
-7 -15 -15 0 -8 7 -15 15 -15 12 0 15 -14 15 -70 0 -63 2 -70 20 -70 18 0 20
7 20 70 0 63 2 70 20 70 11 0 20 7 20 15 0 8 -9 15 -20 15 -29 0 -25 29 6 40
33 13 26 34 -14 38 -22 2 -34 -2 -41 -17z"/>
<path d="M8300 5350 c0 -11 -7 -23 -15 -26 -8 -4 -15 -12 -15 -19 0 -7 7 -15
15 -19 11 -4 15 -21 15 -59 0 -60 12 -77 52 -77 21 0 28 5 28 19 0 10 -9 21
-20 24 -16 4 -20 14 -20 51 0 39 3 46 20 46 11 0 20 7 20 15 0 8 -9 15 -19 15
-13 0 -21 8 -23 22 -4 30 -38 37 -38 8z"/>
<path d="M7063 5320 c-40 -16 -28 -39 19 -37 33 2 43 -2 46 -15 3 -14 -3 -18
-25 -18 -38 0 -73 -26 -73 -54 0 -35 20 -45 88 -44 l62 1 0 52 c0 108 -39 146
-117 115z m65 -117 c-4 -22 -38 -30 -49 -12 -11 19 -2 29 27 29 19 0 25 -5 22
-17z"/>
<path d="M7399 5319 c-50 -18 -65 -96 -28 -143 19 -24 27 -27 73 -24 40 2 52
7 54 21 3 16 -1 18 -27 12 -38 -8 -71 2 -71 21 0 10 12 14 43 14 58 0 71 10
62 48 -3 17 -12 35 -18 41 -20 16 -60 21 -88 10z m59 -46 c2 -9 -7 -13 -27
-13 -30 0 -39 9 -24 24 11 10 46 3 51 -11z"/>
<path d="M7556 5323 c-3 -3 -6 -44 -6 -90 0 -76 2 -83 20 -83 17 0 20 7 20 53
0 55 12 77 42 77 13 0 18 8 18 25 0 26 -14 31 -39 16 -9 -6 -22 -6 -32 -1 -9
5 -19 6 -23 3z"/>
<path d="M7784 5317 c-2 -7 -3 -62 -2 -123 3 -94 5 -109 21 -112 14 -3 17 4
17 36 l0 40 38 -5 c47 -6 71 11 78 59 9 51 -2 85 -32 104 -20 14 -30 15 -50 5
-18 -8 -31 -8 -45 -1 -14 8 -21 8 -25 -3z m94 -39 c18 -18 15 -77 -4 -85 -41
-16 -70 43 -38 78 20 22 26 23 42 7z"/>
<path d="M8003 5320 c-40 -16 -28 -39 19 -37 33 2 43 -2 46 -15 3 -14 -3 -18
-25 -18 -38 0 -73 -26 -73 -54 0 -35 20 -45 88 -44 l62 1 0 52 c0 108 -39 146
-117 115z m65 -117 c-4 -22 -38 -30 -49 -12 -11 19 -2 29 27 29 19 0 25 -5 22
-17z"/>
<path d="M8166 5323 c-3 -3 -6 -44 -6 -90 0 -76 2 -83 20 -83 17 0 20 7 20 53
0 55 12 77 42 77 13 0 18 8 18 25 0 26 -14 31 -39 16 -9 -6 -22 -6 -32 -1 -9
5 -19 6 -23 3z"/>
<path d="M8459 5319 c-50 -18 -65 -96 -28 -143 19 -24 27 -27 73 -24 40 2 52
7 54 21 3 16 -1 18 -27 12 -38 -8 -71 2 -71 21 0 10 12 14 43 14 58 0 71 10
62 48 -3 17 -12 35 -18 41 -20 16 -60 21 -88 10z m59 -46 c2 -9 -7 -13 -27
-13 -30 0 -39 9 -24 24 11 10 46 3 51 -11z"/>
<path d="M7210 5305 c0 -10 10 -15 30 -15 17 0 30 -3 30 -7 0 -5 -14 -28 -30
-53 -46 -69 -42 -80 30 -80 53 0 60 2 60 20 0 16 -7 20 -30 20 -16 0 -30 2
-30 5 0 2 14 26 30 52 43 67 41 73 -30 73 -47 0 -60 -3 -60 -15z"/>
<path d="M335 5205 c9 -54 34 -95 76 -124 33 -23 33 -23 7 -19 -31 6 -34 1
-15 -23 34 -44 96 -48 217 -11 l55 16 -42 6 c-87 13 -52 20 98 20 203 0 347
10 385 25 36 15 64 67 63 117 l-1 33 -11 -31 c-35 -89 -91 -121 -196 -110 -31
3 -162 9 -291 14 -265 8 -280 12 -327 87 l-25 40 7 -40z"/>
<path d="M5270 4794 c0 -40 -2 -45 -17 -39 -42 17 -53 16 -79 -10 -23 -23 -26
-32 -22 -75 3 -27 11 -56 18 -65 15 -18 71 -20 88 -3 9 9 12 9 12 0 0 -7 9
-12 20 -12 19 0 20 7 20 125 0 118 -1 125 -20 125 -17 0 -20 -7 -20 -46z m-16
-83 c32 -35 3 -94 -38 -78 -29 11 -16 97 14 97 4 0 15 -9 24 -19z"/>
<path d="M5394 4759 c-46 -23 -58 -99 -23 -143 19 -24 27 -27 73 -24 40 2 52
7 54 21 3 16 -1 18 -27 12 -38 -8 -71 2 -71 21 0 10 12 14 43 14 58 0 71 10
62 48 -3 17 -12 35 -19 41 -20 17 -69 22 -92 10z m64 -46 c2 -9 -7 -13 -27
-13 -30 0 -39 9 -24 24 11 10 46 3 51 -11z"/>
<path d="M5562 4754 c-36 -25 -28 -60 18 -89 47 -30 44 -50 -7 -40 -30 5 -34
4 -31 -12 5 -25 79 -31 102 -7 28 28 16 66 -27 87 -42 20 -41 37 4 37 31 0 41
23 13 34 -26 10 -48 7 -72 -10z"/>
<path d="M5712 4754 c-36 -25 -28 -60 18 -89 47 -30 44 -50 -7 -40 -30 5 -34
4 -31 -12 5 -25 79 -31 102 -7 28 28 16 66 -27 87 -42 20 -41 37 4 37 31 0 41
23 13 34 -26 10 -48 7 -72 -10z"/>
<path d="M5873 4760 c-40 -16 -28 -39 19 -37 33 2 43 -2 46 -15 3 -14 -3 -18
-31 -18 -38 0 -67 -25 -67 -57 0 -32 21 -42 88 -41 l62 1 0 52 c0 108 -39 146
-117 115z m65 -117 c-4 -22 -38 -30 -49 -12 -11 19 -2 29 27 29 19 0 25 -5 22
-17z"/>
<path d="M6707 4284 c-2 -1 -115 -10 -312 -24 -182 -13 -246 -20 -278 -32 -52
-20 -62 -74 -22 -113 21 -22 33 -25 92 -25 37 0 106 4 153 10 47 5 153 14 235
20 207 16 274 26 296 46 27 24 25 75 -5 103 -21 19 -33 22 -91 19 -36 -2 -67
-4 -68 -4z"/>
<path d="M11975 4230 c-141 -5 -135 -6 100 -8 138 -2 270 -7 294 -11 57 -11
91 -37 119 -91 19 -39 22 -60 22 -163 0 -109 1 -119 18 -112 39 15 85 17 162
6 45 -7 88 -15 96 -18 12 -4 14 28 14 201 l0 206 -337 -2 c-186 -1 -405 -5
-488 -8z"/>
<path d="M0 4215 c0 -12 17 -15 93 -15 123 0 184 -18 230 -69 42 -47 44 -56
57 -276 19 -337 14 -385 -43 -385 -14 0 -28 -11 -38 -29 -9 -15 -33 -41 -54
-57 -35 -26 -46 -29 -141 -32 -94 -4 -104 -6 -104 -23 0 -17 8 -19 85 -19 111
0 241 -32 273 -66 25 -29 30 -85 8 -103 -8 -7 -15 -20 -14 -29 1 -73 -17 -331
-22 -322 -8 14 -20 -491 -21 -917 0 -172 -3 -321 -6 -333 -8 -29 -18 -25 -20
8 -1 15 -5 104 -9 197 -5 103 -10 158 -15 140 -6 -26 -7 -27 -8 -6 0 13 -8 29
-15 35 -8 6 -26 56 -40 110 -13 54 -29 102 -34 105 -11 8 -24 40 -27 66 -5 49
-19 101 -30 115 -7 8 -17 42 -24 74 -10 55 -19 70 -46 79 -5 2 -10 37 -10 77
0 50 -4 75 -12 77 -10 4 -13 -262 -13 -1306 l0 -1311 440 0 c242 0 440 2 440
5 0 14 -34 55 -44 55 -7 0 -19 12 -27 28 -8 15 -22 36 -31 46 -10 11 -18 23
-18 27 0 4 -8 6 -17 4 -10 -1 -12 0 -5 2 6 3 12 6 12 8 0 2 -33 61 -74 131
-55 97 -79 130 -97 134 -17 4 -25 14 -27 33 -2 15 -7 27 -12 27 -5 0 -21 23
-36 50 -18 33 -34 50 -46 50 -33 0 -86 -28 -104 -54 -25 -39 -30 -23 -5 18 13
20 41 44 69 58 46 22 57 23 462 32 659 13 670 13 706 -6 18 -10 43 -31 57 -47
l25 -30 21 25 c12 14 49 38 82 54 l60 28 -63 6 c-35 3 -117 8 -182 11 -140 6
-170 19 -203 85 -22 42 -23 56 -24 275 0 255 -6 287 -56 321 -30 20 -46 21
-419 28 -431 7 -428 7 -469 76 -19 34 -20 51 -20 442 0 395 1 407 21 434 51
69 49 68 342 75 147 4 303 7 346 8 44 0 77 3 74 6 -3 3 -151 9 -329 13 -363 8
-367 9 -409 83 -21 38 -21 43 -23 766 -2 591 1 732 11 751 8 13 16 21 19 18 3
-2 15 6 28 20 12 13 28 24 35 24 7 0 10 7 6 16 -5 12 -2 15 10 10 14 -5 15 -4
5 8 -18 22 6 26 167 27 81 1 206 4 277 8 l130 6 -95 8 c-179 14 -535 27 -772
27 -205 0 -238 -2 -238 -15z m1270 -2866 c67 -38 70 -50 70 -299 l0 -223 -27
-42 c-15 -24 -45 -55 -67 -69 l-40 -26 -276 1 c-352 0 -472 9 -501 35 -45 40
-49 65 -56 287 -7 229 -2 266 41 306 50 47 78 50 460 51 346 0 360 -1 396 -21z
m-1040 -25 c29 -19 50 -44 50 -57 0 -5 -12 3 -27 18 -16 15 -41 34 -58 41 -23
10 -25 13 -10 14 11 0 32 -7 45 -16z"/>
<path d="M11736 4212 c-2 -4 13 -6 35 -4 21 2 39 6 39 8 0 7 -69 4 -74 -4z"/>
<path d="M6114 3680 c-33 -13 -54 -50 -54 -92 0 -34 -3 -38 -25 -38 -21 0 -25
-5 -25 -30 0 -25 4 -30 25 -30 l25 0 0 -121 0 -120 38 3 37 3 3 118 3 117 30
0 c27 0 30 3 27 28 -2 21 -9 28 -31 30 -25 3 -28 7 -25 35 3 28 7 32 36 35 28
3 32 7 32 31 0 21 -6 30 -22 35 -30 8 -48 7 -74 -4z"/>
<path d="M6562 3682 c-9 -7 -12 -57 -10 -218 l3 -209 38 -3 37 -3 0 214 c0
187 -2 216 -16 221 -21 8 -36 7 -52 -2z"/>
<path d="M6287 3550 c-38 -11 -57 -29 -57 -51 0 -27 11 -29 63 -12 60 20 97 7
97 -32 0 -22 -4 -25 -32 -25 -49 0 -103 -18 -123 -39 -24 -28 -22 -87 5 -116
30 -31 82 -40 122 -20 22 10 35 12 42 5 5 -5 23 -10 38 -10 l28 0 0 115 c0 83
-4 124 -15 144 -23 45 -96 62 -168 41z m103 -193 c0 -51 -69 -75 -94 -34 -9
15 -7 22 13 38 13 10 36 19 52 19 24 0 29 -4 29 -23z"/>
<path d="M6767 3550 c-38 -11 -57 -29 -57 -51 0 -27 11 -29 63 -12 60 20 97 7
97 -32 0 -22 -4 -25 -32 -25 -49 0 -103 -18 -123 -39 -24 -28 -22 -87 5 -116
30 -31 82 -40 122 -20 22 10 35 12 42 5 5 -5 23 -10 38 -10 l28 0 0 115 c0 83
-4 124 -15 144 -23 45 -96 62 -168 41z m103 -193 c0 -51 -69 -75 -94 -34 -9
15 -7 22 13 38 13 10 36 19 52 19 24 0 29 -4 29 -23z"/>
<path d="M7200 3455 c0 -42 -2 -45 -19 -35 -29 15 -39 13 -66 -15 -30 -29 -34
-97 -9 -133 17 -25 71 -31 92 -10 9 9 12 9 12 0 0 -7 9 -12 20 -12 19 0 20 7
20 125 l0 125 -25 0 c-23 0 -25 -4 -25 -45z m-11 -79 c7 -8 11 -30 9 -48 -2
-27 -8 -34 -30 -36 -22 -3 -27 2 -33 27 -11 53 26 91 54 57z"/>
<path d="M5375 3405 c-30 -29 -34 -97 -9 -134 14 -20 23 -22 55 -18 38 5 39 5
39 -28 0 -32 21 -52 41 -39 14 8 11 231 -3 240 -6 4 -16 0 -22 -8 -10 -14 -14
-14 -31 -2 -27 20 -42 17 -70 -11z m74 -29 c7 -8 11 -30 9 -48 -2 -28 -7 -34
-30 -36 -22 -3 -29 2 -34 23 -13 52 27 95 55 61z"/>
<path d="M5561 3421 c-17 -11 -10 -133 9 -156 14 -17 53 -20 81 -5 13 7 19 7
19 0 0 -5 9 -10 20 -10 18 0 20 7 20 84 0 86 -6 101 -34 90 -11 -4 -16 -23
-18 -67 -3 -59 -4 -62 -28 -62 -24 0 -25 4 -30 64 -5 65 -13 78 -39 62z"/>
<path d="M5793 3420 c-29 -12 -43 -40 -43 -89 0 -54 26 -81 79 -81 49 0 71 8
71 26 0 10 -10 12 -44 8 -38 -6 -46 -3 -55 14 -11 20 -8 21 41 24 42 2 54 7
56 21 7 33 -7 63 -33 75 -30 14 -42 14 -72 2z m65 -47 c2 -9 -8 -13 -32 -13
-28 0 -34 3 -29 16 7 18 54 16 61 -3z"/>
<path d="M7333 3420 c-29 -12 -43 -40 -43 -89 0 -54 26 -81 79 -81 49 0 71 8
71 26 0 10 -10 12 -44 8 -38 -6 -46 -3 -55 14 -11 20 -8 21 41 24 42 2 54 7
56 21 7 33 -7 63 -33 75 -30 14 -42 14 -72 2z m65 -47 c2 -9 -8 -13 -32 -13
-28 0 -34 3 -29 16 7 18 54 16 61 -3z"/>
<path d="M5913 2839 c-118 -23 -183 -80 -183 -158 l0 -48 -52 18 c-103 36
-192 18 -233 -45 -9 -14 -22 -59 -28 -101 l-12 -76 -51 -29 c-146 -83 -173
-216 -72 -357 l33 -45 0 -142 c0 -126 2 -146 23 -191 30 -65 83 -118 146 -147
46 -21 65 -23 186 -22 104 1 152 6 210 22 l75 20 20 -26 c32 -45 81 -88 122
-108 55 -28 191 -26 255 4 29 13 50 17 54 11 3 -5 10 -39 15 -76 24 -171 -58
-327 -225 -427 -48 -29 -55 -36 -35 -36 43 0 141 30 208 63 129 63 251 221
296 382 9 33 18 66 20 73 3 9 16 5 46 -14 61 -38 114 -54 181 -54 67 0 113 17
165 59 l37 30 105 -6 c123 -6 168 3 237 50 38 25 57 48 84 101 31 62 35 77 35
150 0 72 -4 87 -31 136 -17 30 -49 69 -72 85 -22 17 -41 32 -41 35 -1 3 19 16
44 29 92 49 138 146 139 291 0 115 -24 187 -85 250 -61 63 -116 83 -229 84
-52 1 -111 -1 -130 -4 -29 -4 -35 -2 -39 15 -12 67 -114 128 -247 146 -60 9
-89 9 -123 0 -42 -12 -83 -43 -93 -71 -3 -10 -20 -5 -71 20 -60 29 -73 32
-130 28 -34 -3 -82 -15 -107 -27 -24 -11 -47 -21 -50 -21 -4 0 -7 15 -8 33 -1
39 -44 81 -99 96 -44 13 -228 13 -290 0z m921 -334 c102 -60 139 -121 137
-228 -1 -60 -5 -75 -31 -109 -36 -50 -120 -114 -163 -126 -44 -12 -106 -3
-116 17 -5 9 -11 118 -14 243 -5 226 -5 227 17 232 47 10 125 -3 170 -29z
m-606 16 c8 -5 12 -22 10 -42 l-3 -34 -67 -5 c-36 -3 -70 -8 -73 -12 -4 -4 -3
-94 3 -200 11 -204 10 -208 -34 -208 -27 0 -31 15 -44 172 -10 117 -15 165
-26 216 -4 22 -9 23 -72 22 -37 -1 -73 -1 -80 -1 -9 1 -12 13 -10 39 l3 37
105 2 c58 2 123 7 145 12 52 12 127 13 143 2z m353 -28 c0 -5 2 -19 4 -33 11
-93 16 -308 7 -331 -14 -35 -94 -87 -148 -95 -76 -11 -133 29 -155 109 -11 40
-39 318 -34 328 9 13 55 16 71 4 13 -9 18 -40 24 -151 9 -147 21 -198 50 -214
27 -14 56 -12 73 5 24 24 31 166 13 260 -20 102 -20 104 7 115 27 11 87 13 88
3z m707 -10 c61 -8 111 -62 128 -138 18 -74 22 -144 12 -189 -14 -68 -34 -101
-83 -134 -34 -23 -50 -27 -111 -27 -93 0 -137 27 -179 111 -41 80 -41 155 -2
239 45 96 122 163 172 149 11 -3 39 -8 63 -11z m-1663 -112 c61 -41 85 -83 85
-152 0 -54 -3 -63 -37 -100 -20 -22 -54 -49 -74 -60 -40 -20 -104 -26 -114
-10 -3 5 -8 86 -11 179 l-5 170 23 5 c40 8 91 -4 133 -32z m313 -15 c-3 -18
-10 -21 -62 -22 -67 -2 -76 -10 -76 -71 l0 -42 53 6 c45 5 55 3 60 -12 11 -27
-1 -35 -52 -35 -26 0 -50 -2 -53 -5 -3 -3 -2 -22 1 -43 l6 -37 61 3 c51 3 62
1 68 -14 10 -27 -2 -31 -97 -38 -65 -4 -89 -2 -92 7 -2 6 -5 83 -7 169 l-3
157 85 3 c103 4 112 1 108 -26z m-213 -455 c8 -102 2 -121 -49 -145 -46 -22
-58 -20 -86 9 -24 26 -38 86 -39 168 -1 40 2 47 18 47 22 0 31 -26 31 -97 0
-72 14 -105 43 -101 21 3 22 7 21 98 0 95 5 110 37 110 14 0 18 -16 24 -89z
m95 39 c14 -22 27 -40 30 -40 3 0 16 18 30 40 48 78 73 44 86 -113 l7 -89 -24
4 c-23 3 -24 8 -29 88 -5 81 -6 83 -21 60 -8 -14 -18 -33 -22 -42 -9 -25 -32
-22 -51 7 -27 41 -36 29 -36 -46 0 -67 -1 -70 -22 -67 -13 2 -23 5 -22 8 1 3
4 56 8 118 7 95 10 112 24 112 10 0 28 -18 42 -40z m345 -7 c32 -17 54 -47 61
-79 7 -37 -24 -80 -74 -101 -34 -14 -34 -15 -27 -60 4 -25 9 -52 12 -59 6 -15
-42 -38 -63 -30 -7 3 -15 36 -19 83 -4 43 -12 115 -19 161 -11 69 -10 84 1 90
19 11 104 8 128 -5z m833 -30 c-3 -24 -8 -28 -41 -31 -31 -3 -42 -10 -64 -43
-31 -48 -36 -118 -10 -147 23 -25 87 -43 126 -36 24 5 32 2 37 -11 10 -25 -13
-35 -81 -35 -71 0 -97 14 -125 70 -54 106 18 260 121 260 38 0 40 -2 37 -27z
m-205 -93 c12 -139 6 -161 -43 -189 -28 -15 -52 -21 -82 -19 -56 4 -83 42 -92
130 -3 35 -9 87 -12 116 l-6 52 30 0 c25 0 30 -5 36 -31 3 -17 6 -60 6 -94 0
-100 24 -145 70 -130 24 8 34 93 21 176 -6 35 -11 69 -11 76 0 11 41 22 65 18
6 -1 14 -48 18 -105z m-301 63 c45 -43 62 -160 34 -228 -30 -70 -141 -100
-200 -54 -36 28 -66 90 -66 136 0 49 40 133 76 162 25 20 36 22 79 16 34 -4
59 -15 77 -32z m820 -2 c64 -71 58 -232 -11 -278 -40 -27 -107 -31 -149 -9
-35 18 -72 92 -72 144 0 55 31 122 71 156 30 25 38 27 83 22 39 -5 58 -14 78
-35z"/>
<path d="M6713 2463 c3 -5 7 -74 8 -154 1 -79 4 -159 6 -176 5 -30 8 -32 32
-26 82 19 151 113 137 185 -10 49 -51 112 -93 141 -40 27 -101 48 -90 30z"/>
<path d="M7162 2381 c-38 -38 -64 -131 -56 -194 8 -55 53 -104 99 -108 61 -4
84 2 114 30 30 28 31 33 31 108 0 91 -18 135 -70 171 -45 30 -82 28 -118 -7z"/>
<path d="M5528 2220 c4 -147 6 -151 74 -104 52 36 66 81 43 140 -11 29 -30 53
-53 69 -65 45 -67 41 -64 -105z"/>
<path d="M6092 1848 c5 -29 11 -54 13 -56 9 -9 63 30 68 48 7 29 -25 60 -62
60 l-28 0 9 -52z"/>
<path d="M6351 1829 c-27 -29 -42 -101 -29 -146 16 -57 102 -78 142 -34 30 33
24 129 -10 170 -31 37 -74 41 -103 10z"/>
<path d="M7178 1840 c-24 -14 -51 -104 -44 -144 11 -59 64 -85 122 -61 39 16
49 43 42 117 -4 40 -12 57 -32 75 -29 24 -60 29 -88 13z"/>
<path d="M12475 2698 c-41 -65 -68 -72 -290 -80 -110 -3 -225 -7 -255 -8 l-55
-2 55 -9 c30 -4 115 -9 189 -10 157 -3 215 -11 131 -19 l-55 -5 24 -22 c13
-12 27 -20 31 -18 11 7 21 -53 14 -81 -5 -19 -1 -26 22 -34 21 -8 25 -13 15
-19 -19 -12 0 -20 32 -14 19 4 26 10 23 20 -3 8 -2 12 3 9 14 -9 34 42 34 89
0 42 2 44 16 30 26 -26 33 -312 24 -1050 l-8 -690 -23 -36 c-40 -66 -55 -68
-370 -69 -305 -1 -311 0 -363 57 -63 67 -60 51 -59 415 1 183 1 339 1 346 -2
24 -64 52 -116 52 l-50 0 51 -29 c88 -51 89 -55 89 -416 0 -308 0 -310 -23
-348 -40 -64 -57 -68 -316 -75 -270 -7 -257 -19 24 -21 224 -2 251 -9 312 -81
22 -25 35 -34 32 -22 -4 12 4 30 19 48 l25 29 366 5 367 5 54 45 55 45 -1 115
c0 63 -5 176 -10 250 -20 273 -26 494 -15 529 19 59 60 75 204 80 112 3 122 5
122 22 0 18 -9 19 -116 19 -131 0 -165 12 -203 74 -20 31 -21 48 -20 257 0
123 4 276 8 339 3 63 3 117 -1 118 -16 7 -7 23 25 42 28 17 50 20 170 20 127
0 137 1 137 19 0 16 -13 19 -127 25 -146 8 -188 23 -179 62 8 31 5 30 -19 -8z
m-119 -134 c19 -15 19 -15 -1 -6 -11 5 -27 12 -35 15 -13 5 -13 6 1 6 8 1 24
-6 35 -15z"/>
<path d="M12766 500 c-20 -43 -32 -60 -46 -60 -14 0 -28 -16 -46 -52 -15 -29
-53 -101 -86 -161 -54 -97 -80 -125 -90 -97 -1 5 -19 -19 -38 -55 -19 -35 -42
-66 -50 -69 -8 -2 76 -4 188 -5 l202 -1 0 280 c0 154 -2 280 -4 280 -2 0 -15
-27 -30 -60z"/>
<path d="M11617 425 c-4 -59 -7 -179 -7 -267 l0 -158 26 0 c26 0 26 1 21 48
-3 26 -9 137 -13 247 -4 110 -10 209 -14 219 -4 11 -10 -28 -13 -89z"/>
<path d="M1628 466 c-5 -27 -8 -143 -8 -257 0 -161 3 -209 13 -209 9 0 11 49
9 217 -1 120 -3 236 -5 258 l-2 40 -7 -49z"/>
</g>
</svg>
